<svg width="48" height="47" viewBox="0 0 48 47" fill="none" xmlns="http://www.w3.org/2000/svg">
<path d="M47.5 23.5C47.5 28.4627 45.9289 33.298 43.0119 37.313C40.0949 41.3279 35.9817 44.3163 31.2619 45.8498C26.5421 47.3834 21.4579 47.3834 16.7381 45.8498C12.0183 44.3163 7.90511 41.3279 4.9881 37.313C2.07109 33.298 0.5 28.4627 0.5 23.5C0.5 18.5373 2.07109 13.702 4.9881 9.68704C7.90511 5.67213 12.0183 2.68373 16.7381 1.15017C21.4579 -0.383391 26.5421 -0.38339 31.2619 1.15017L29.4464 6.73763C25.9066 5.58746 22.0934 5.58746 18.5536 6.73763C15.0137 7.8878 11.9288 10.1291 9.74108 13.1403C7.55332 16.1515 6.375 19.778 6.375 23.5C6.375 27.222 7.55332 30.8485 9.74107 33.8597C11.9288 36.8709 15.0137 39.1122 18.5536 40.2624C22.0934 41.4125 25.9066 41.4125 29.4464 40.2624C32.9863 39.1122 36.0712 36.8709 38.2589 33.8597C40.4467 30.8485 41.625 27.222 41.625 23.5H47.5Z" fill="currentColor"/>
</svg>
